<svg xmlns="http://www.w3.org/2000/svg" xmlns:xlink="http://www.w3.org/1999/xlink" preserveAspectRatio="none" viewBox="-0.5 -0.37 73.4 73.5"><defs><path fill="#D4BF94" d="M12.8-5.85q-1.25-1.25-3-1.25H-9.5q-1.75 0-3.05 1.25-1.2 1.25-1.2 3.05 0 1.75 1.2 2.95 1.3 1.3 3.05 1.3H9.8q1.75 0 3-1.3 1.25-1.2 1.25-2.95 0-1.8-1.25-3.05z" id="ad"/><path fill="#AF6A19" d="M91.85 45.3v29.65H79.7q-3.85-14.85 0-29.65h12.15z" id="a"/><path fill="#CD960D" d="M92.9-35.7v14.1h96.85v-14.1H92.9z" id="e"/><path fill="#CD960D" d="M189.7 83.3V69.2H92.85v14.1h96.85z" id="g"/><path fill="#AF6A19" d="M204.65 74.85q3.85-14.85 0-29.65H192.5v29.65h12.15z" id="i"/><path fill="#AF6A19" d="M204.65-28.3H192.5V1.35h12.15q3.85-14.85 0-29.65z" id="k"/><path fill="#562A07" d="M193.1-40.15H179v127.6h14.1v-127.6z" id="m"/><path fill="#562A07" d="M104.65-40.15h-14.1v127.6h14.1v-127.6z" id="o"/><path fill="#BF7926" d="m12.95-21.25-6.7-8.45-6.75 5.9q-7.05 6.75-8.95 11.15-3.15 7.35-3.5 16.8-.5 11.6 5.2 12.85 5.1 1.1 6.45-5.95l.9-6.8Q.3-.2 1.5-2.8 4-8.2 8.8-15.25l4.15-6z" id="q"/><path fill="#70381F" d="M13.2-21.45 6.5-29.9-.25-24Q-7.3-17.3-9.2-12.9q-3.15 7.35-3.5 16.8l-.05 1.9Q-7.25 4-.1 3.9.55-.5 1.75-3.05q2.5-5.4 7.3-12.45l4.15-5.95z" id="r"/><path fill="#70381F" d="M16.95-41.2q-1.3-2.55-3.15-4.4-1.05-1.05-2.5-1.05-1.4 0-2.45 1.05-1 1-1 2.45 0 1.45 1 2.45l1.9 2.6v.05q.8 1.55.2 2.5-.75.7-1.9 1.05H9l-3.7.7-5.1 1.15q-3.2 1.25-5.3 3.8l-.05.05q-4.65 4.95-.7 12.6l.05.05q1.05 1.9 2.6 3.75l.05.1L-2-10.95Q-1.05-9.9.35-9.8q1.45.1 2.55-.8 1.05-.95 1.15-2.4.1-1.45-.8-2.5L2.1-16.85l-1.8-2.6v-.05q-1.5-2.9-.2-4.8l.05-.05q1-1.2 2.55-1.8l3.6-.8 4.6-.85.05-.05q3.05-.9 4.95-2.85l.05-.05q4.25-4 1-10.45z" id="t"/><path fill="#70381F" d="M41.55 9.75q1.7 1.75 1.8 7.6.1 6-1.8 7.95-1.7 1.65-8.8 1l-6.75-1V9.75l6.9-.85q7.2-.55 8.65.85z" id="w"/><path fill="#BF7926" d="m41.9 24.85-.35.45q-1.7 1.65-8.8 1l-6.75-1v-9.65l5.45-.6q7.2-.55 8.6.85 1.75 1.75 1.85 7.6v1.35z" id="x"/><path fill="#70381F" d="m-32.75 26.3 6.75-1V9.75l-6.9-.85q-7.2-.55-8.65.85-1.7 1.75-1.8 7.6-.1 6 1.8 7.95 1.7 1.65 8.8 1z" id="y"/><path fill="#BF7926" d="m-32.75 26.3 6.75-1v-9.65l-5.45-.6q-7.2-.55-8.6.85-1.75 1.75-1.85 7.6v1.35l.35.45q1.7 1.65 8.8 1z" id="z"/><path fill="#70381F" d="M-26.5-4.9q5.25-5.25 12.05-7.95Q-7.8-15.5-.2-15.5t14.25 2.65q6.8 2.7 12.05 7.95Q31.15.15 33.75 7.95q2.3 7 2.3 15 0 8.7-7.7 14.05-9.4 6.6-28.55 6.6T-28.75 37q-7.7-5.35-7.7-14.05 0-8 2.3-15 2.6-7.8 7.65-12.85z" id="A"/><path fill="#54230D" d="M-8.55-12.8q-3.1 2.25-5.75 5.3-5.05 5.75-7.65 14.6-2.3 7.95-2.3 17.1 0 9.85 7.7 15.95-5.95-1.55-10.05-4.25-7.7-5.1-7.7-13.4 0-7.6 2.3-14.3 2.6-7.4 7.65-12.25 5.25-5 12.05-7.55l3.75-1.2z" id="C"/><path fill="#A35D0D" d="M28.5 27.65q-4.3-2-8-2.55-3.65-.5-10.45 1.85Q2.65 29.5-.2 29.5q-2.7 0-10.25-2.5-6.9-2.3-10.5-1.75-3.8.55-7.9 2.65-2.05 1.05-3.7 2.15 1.75 2.6 4.65 4.8 3.05 2.35 6.95 3.9l1.1.4.1 1q0 2.7 5.7 4.55Q-8.3 46.65-.2 46.65t13.8-1.95q5.7-1.85 5.7-4.55l.1-1.05 1.1-.35q7.95-2.9 11.85-9.05-.2-.05-3.85-2.05z" id="D"/><path d="M21.5 33.1q.9.85.9 2.1 0 1.2-.9 2.1-.85.85-2.1.85-1.2 0-2.1-.85-.85-.9-.85-2.1 0-1.25.85-2.1.9-.9 2.1-.9 1.25 0 2.1.9z" id="E"/><path d="M-17.8 33.1q.9.85.9 2.1 0 1.2-.9 2.1-.85.85-2.1.85-1.2 0-2.1-.85-.85-.9-.85-2.1 0-1.25.85-2.1.9-.9 2.1-.9 1.25 0 2.1.9z" id="F"/><path fill="#BF7926" d="M13.6 44.7q5.75-1.85 5.75-4.6l.05-.7v-.05l-.25-.2Q11.5 34.65-1.3 34.2q-10.6.5-18.35 4.85l-.25.15.15.9q0 2.75 5.7 4.6 5.75 1.95 13.8 1.95 8.15 0 13.85-1.95z" id="G"/><path fill="#70381F" d="M16.95-41.2q-1.3-2.55-3.15-4.4-1.05-1.05-2.5-1.05-1.4 0-2.45 1.05-1 1-1 2.45 0 1.45 1 2.45l1.9 2.6v.05q.8 1.55.2 2.5-.75.7-1.9 1.05H9l-3.7.7-5.1 1.15q-3.2 1.25-5.3 3.8l-.05.05q-4.65 4.95-.7 12.6l.05.05q1.05 1.9 2.6 3.75l.05.1L-2-10.95Q-1.05-9.9.35-9.8q1.45.1 2.55-.8 1.05-.95 1.15-2.4.1-1.45-.8-2.5L2.1-16.85l-1.8-2.6v-.05q-1.5-2.9-.2-4.8l.05-.05q1-1.2 2.55-1.8l3.6-.8 4.6-.85.05-.05q3.05-.9 4.95-2.85l.05-.05q4.25-4 1-10.45z" id="H"/><path fill="#70381F" d="M41.55 9.75q1.7 1.75 1.8 7.6.1 6-1.8 7.95-1.7 1.65-8.8 1l-6.75-1V9.75l6.9-.85q7.2-.55 8.65.85z" id="K"/><path fill="#BF7926" d="m41.9 24.85-.35.45q-1.7 1.65-8.8 1l-6.75-1v-9.65l5.45-.6q7.2-.55 8.6.85 1.75 1.75 1.85 7.6v1.35z" id="L"/><path fill="#70381F" d="m-32.75 26.3 6.75-1V9.75l-6.9-.85q-7.2-.55-8.65.85-1.7 1.75-1.8 7.6-.1 6 1.8 7.95 1.7 1.65 8.8 1z" id="M"/><path fill="#BF7926" d="m-32.75 26.3 6.75-1v-9.65l-5.45-.6q-7.2-.55-8.6.85-1.75 1.75-1.85 7.6v1.35l.35.45q1.7 1.65 8.8 1z" id="N"/><path fill="#70381F" d="M26.1-4.9q-5.25-5.25-12.05-7.95Q7.4-15.5-.2-15.5t-14.25 2.65q-6.8 2.7-12.05 7.95-5.05 5.05-7.65 12.85-2.3 7-2.3 15 0 8.7 7.7 14.05 9.4 6.6 28.55 6.6T28.35 37q7.7-5.35 7.7-14.05 0-8-2.3-15Q31.15.15 26.1-4.9z" id="O"/><path fill="#54230D" d="M-8.55-12.8q-3.1 2.25-5.75 5.3-5.05 5.75-7.65 14.6-2.3 7.95-2.3 17.1 0 9.85 7.7 15.95-5.95-1.55-10.05-4.25-7.7-5.1-7.7-13.4 0-7.6 2.3-14.3 2.6-7.4 7.65-12.25 5.25-5 12.05-7.55l3.75-1.2z" id="Q"/><path fill="#A35D0D" d="M28.5 27.65q-4.3-2-8-2.55-3.65-.5-10.45 1.85Q2.65 29.5-.2 29.5q-2.7 0-10.25-2.5-6.9-2.3-10.5-1.75-3.8.55-7.9 2.65-2.05 1.05-3.7 2.15 1.75 2.6 4.65 4.8 3.05 2.35 6.95 3.9l1.1.4.1 1q0 2.7 5.7 4.55Q-8.3 46.65-.2 46.65t13.8-1.95q5.7-1.85 5.7-4.55l.1-1.05 1.1-.35q7.95-2.9 11.85-9.05-.2-.05-3.85-2.05z" id="R"/><path d="M21.5 33.1q.9.85.9 2.1 0 1.2-.9 2.1-.85.85-2.1.85-1.2 0-2.1-.85-.85-.9-.85-2.1 0-1.25.85-2.1.9-.9 2.1-.9 1.25 0 2.1.9z" id="S"/><path d="M-17.8 33.1q.9.85.9 2.1 0 1.2-.9 2.1-.85.85-2.1.85-1.2 0-2.1-.85-.85-.9-.85-2.1 0-1.25.85-2.1.9-.9 2.1-.9 1.25 0 2.1.9z" id="T"/><path fill="#BF7926" d="M13.6 44.7q5.75-1.85 5.75-4.6l.05-.7v-.05l-.25-.2Q11.5 34.65-1.3 34.2q-10.6.5-18.35 4.85l-.25.15.15.9q0 2.75 5.7 4.6 5.75 1.95 13.8 1.95 8.15 0 13.85-1.95z" id="U"/><path fill="#CD960D" d="M-6.95 76.95h14.1V-40.8h-14.1V76.95z" id="V"/><path fill="#D4BF94" d="M12.8-14.4q-1.25-1.25-3-1.25H-9.5q-1.75 0-3.05 1.25-1.2 1.25-1.2 3.05 0 1.75 1.2 2.95 1.3 1.3 3.05 1.3H9.8q1.75 0 3-1.3 1.25-1.2 1.25-2.95 0-1.8-1.25-3.05z" id="Y"/><path fill="#858585" d="M22.45-67.65Q13.15-76.9.05-76.9q-13.15 0-22.35 9.25-9.3 9.25-9.3 22.35 0 13.1 9.3 22.4 9.2 9.2 22.35 9.2 13.1 0 22.4-9.2 9.2-9.3 9.2-22.4 0-13.1-9.2-22.35z" id="aa"/><path fill="#565656" d="M16.85-28.65q7-7.05 7-17.05 0-9.95-7-17Q9.8-69.75-.2-69.75t-17 7.05q-7.1 7.05-7.1 17 0 10 7.1 17.05 7 7.05 17 7.05t17.05-7.05z" id="ac"/><path fill="#AF6A19" d="M79.7-28.2h12.15V1.45H79.7q-3.85-14.85 0-29.65z" id="c"/><path fill="#D4BF94" d="M12.7 2.5q-1.25-1.25-3-1.25H-9.6q-1.75 0-3.05 1.25-1.2 1.25-1.2 3.05 0 1.75 1.2 2.95 1.3 1.3 3.05 1.3H9.7q1.75 0 3-1.3 1.25-1.2 1.25-2.95 0-1.8-1.25-3.05z" id="af"/><path fill="#666" d="M161.35 85.5V66.55h-39.7V85.5h39.7z" id="ai"/><path fill="#666" d="M157.25 87.15h4.25V64.7h-4.25v22.45z" id="ak"/><path fill="#666" d="M121.35 64.7v22.45h4.25V64.7h-4.25z" id="am"/><path fill="#232222" d="m30.55-1.15-11-4.75-1.65-4.05 4.55-11.2-10.9 4.3q-2.7-1.95-5.9-2.8L1-30.85-3.7-20q-3 .5-5.7 1.95l-11.1-4.6L-16.3-12q-2 2.7-2.95 5.85l-11.25 4.7 10.7 4.6q.6 4.35 3.1 7.9l-4.65 11.15 11.75-4.6q2.65 1.45 5.65 2.1l4.6 11.15 5-11.5q3.3-.9 6.2-3l10.6 4.4L18 9.4q1.55-2.85 2.1-6.2l10.45-4.35z" id="ao"/><path fill="#FFF" d="m7.2-14.15 3.4 2.5q5.1 4.75 5.1 11.5 0 6.7-5.1 11.45-1.65 1.55-3.45 2.55Q11.85 8 11.85-.2q0-8.1-4.65-13.95z" id="aq"/><path fill="#232222" d="m30.55-1.15-11-4.75-1.65-4.05 4.55-11.2-10.9 4.3q-2.7-1.95-5.9-2.8L1-30.85-3.7-20q-3 .5-5.7 1.95l-11.1-4.6L-16.3-12q-2 2.7-2.95 5.85l-11.25 4.7 10.7 4.6q.6 4.35 3.1 7.9l-4.65 11.15 11.75-4.6q2.65 1.45 5.65 2.1l4.6 11.15 5-11.5q3.3-.9 6.2-3l10.6 4.4L18 9.4q1.55-2.85 2.1-6.2l10.45-4.35z" id="ar"/><path fill="#FFF" d="m7.2-14.15 3.4 2.5q5.1 4.75 5.1 11.5 0 6.7-5.1 11.45-1.65 1.55-3.45 2.55Q11.85 8 11.85-.2q0-8.1-4.65-13.95z" id="at"/><path id="b" stroke="#5F3B0F" stroke-width="3" stroke-linejoin="round" stroke-linecap="round" fill="none" d="M79.7 74.95h12.15V45.3H79.7q-3.85 14.8 0 29.65z"/><path id="d" stroke="#5F3B0F" stroke-width="3" stroke-linejoin="round" stroke-linecap="round" fill="none" d="M79.7 1.45h12.15V-28.2H79.7q-3.85 14.8 0 29.65z"/><path id="f" stroke="#856301" stroke-width="3" stroke-linejoin="round" stroke-linecap="round" fill="none" d="M92.9-35.7h96.85v14.1H92.9v-14.1z"/><path id="h" stroke="#856301" stroke-width="3" stroke-linejoin="round" stroke-linecap="round" fill="none" d="M92.85 69.2h96.85v14.1H92.85V69.2z"/><path id="j" stroke="#5F3B0F" stroke-width="3" stroke-linejoin="round" stroke-linecap="round" fill="none" d="M204.65 74.85H192.5V45.2h12.15q3.85 14.8 0 29.65z"/><path id="l" stroke="#5F3B0F" stroke-width="3" stroke-linejoin="round" stroke-linecap="round" fill="none" d="M204.65 1.35H192.5V-28.3h12.15q3.85 14.8 0 29.65z"/><path id="n" stroke="#150901" stroke-width="3" stroke-linejoin="round" stroke-linecap="round" fill="none" d="M179 87.45v-127.6h14.1v127.6H179z"/><path id="p" stroke="#150901" stroke-width="3" stroke-linejoin="round" stroke-linecap="round" fill="none" d="M90.55 87.45v-127.6h14.1v127.6h-14.1z"/><path id="s" stroke="#3C190A" stroke-width="3" stroke-linejoin="round" stroke-linecap="round" fill="none" d="M-.75-23.55Q-7.8-16.8-9.7-12.4q-3.15 7.35-3.5 16.8l-.05 1.9q.05 9.8 5.25 10.95 5.1 1.1 6.45-5.95l.9-6.8.05-.1.35-1.95L.3.35l.95-2.9q2.5-5.4 7.3-12.45l4.15-6L6-29.45l-6.75 5.9z"/><path id="u" stroke="#3C190A" stroke-width="3" stroke-linejoin="round" stroke-linecap="round" fill="none" d="M13.8-45.6q-1.05-1.05-2.5-1.05-1.4 0-2.45 1.05-1 1-1 2.45 0 1.45 1 2.45l1.9 2.6v.05q.8 1.55.2 2.5-.75.7-1.9 1.05H9l-3.7.7-5.1 1.15q-3.2 1.25-5.3 3.8l-.05.05q-4.65 4.95-.7 12.6l.05.05q1.05 1.9 2.6 3.75l.05.1L-2-10.95Q-1.05-9.9.35-9.8q1.45.1 2.55-.8 1.05-.95 1.15-2.4.1-1.45-.8-2.5L2.1-16.85l-1.8-2.6v-.05q-1.5-2.9-.2-4.8l.05-.05q1-1.2 2.55-1.8l3.6-.8 4.6-.85.05-.05q3.05-.9 4.95-2.85l.05-.05q4.25-4 1-10.45-1.3-2.55-3.15-4.4z"/><path id="v" stroke="#3C190A" stroke-width="6" stroke-linejoin="round" stroke-linecap="round" fill="none" d="M-41.55 25.3q-1.9-1.95-1.85-7.95.1-5.85 1.85-7.6 1.25-1.25 7.05-.95l.35-.85q2.55-7.8 7.6-12.85 5.25-5.25 12.1-7.95 6.6-2.65 14.2-2.65T14-12.85q6.8 2.7 12.05 7.95Q31.1.15 33.7 7.95l.25.9q6.25-.4 7.6.9 1.75 1.75 1.85 7.6.1 6-1.85 7.95-1.3 1.3-5.9 1.2Q34.4 32.8 28.3 37q-3.8 2.7-9.3 4.3-.95 1.95-5.4 3.4-5.7 1.95-13.85 1.95-8.05 0-13.8-1.95-4.45-1.45-5.45-3.4-5.45-1.6-9.3-4.3-6.05-4.2-7.35-10.5-4.15.05-5.4-1.2z"/><path id="B" stroke="#3C190A" stroke-width="1" stroke-linejoin="round" stroke-linecap="round" fill="none" d="M-34.15 7.95q-2.3 7-2.3 15 0 8.7 7.7 14.05 9.4 6.6 28.55 6.6T28.35 37q7.7-5.35 7.7-14.05 0-8-2.3-15Q31.15.15 26.1-4.9q-5.25-5.25-12.05-7.95Q7.4-15.5-.2-15.5t-14.25 2.65q-6.8 2.7-12.05 7.95-5.05 5.05-7.65 12.85z"/><path id="I" stroke="#3C190A" stroke-width="3" stroke-linejoin="round" stroke-linecap="round" fill="none" d="M13.8-45.6q-1.05-1.05-2.5-1.05-1.4 0-2.45 1.05-1 1-1 2.45 0 1.45 1 2.45l1.9 2.6v.05q.8 1.55.2 2.5-.75.7-1.9 1.05H9l-3.7.7-5.1 1.15q-3.2 1.25-5.3 3.8l-.05.05q-4.65 4.95-.7 12.6l.05.05q1.05 1.9 2.6 3.75l.05.1L-2-10.95Q-1.05-9.9.35-9.8q1.45.1 2.55-.8 1.05-.95 1.15-2.4.1-1.45-.8-2.5L2.1-16.85l-1.8-2.6v-.05q-1.5-2.9-.2-4.8l.05-.05q1-1.2 2.55-1.8l3.6-.8 4.6-.85.05-.05q3.05-.9 4.95-2.85l.05-.05q4.25-4 1-10.45-1.3-2.55-3.15-4.4z"/><path id="J" stroke="#3C190A" stroke-width="6" stroke-linejoin="round" stroke-linecap="round" fill="none" d="M-41.55 25.3q-1.9-1.95-1.85-7.95.1-5.85 1.85-7.6 1.25-1.25 7.05-.95l.35-.85q2.55-7.8 7.6-12.85 5.25-5.25 12.1-7.95 6.6-2.65 14.2-2.65T14-12.85q6.8 2.7 12.05 7.95Q31.1.15 33.7 7.95l.25.9q6.25-.4 7.6.9 1.75 1.75 1.85 7.6.1 6-1.85 7.95-1.3 1.3-5.9 1.2Q34.4 32.8 28.3 37q-3.8 2.7-9.3 4.3-.95 1.95-5.4 3.4-5.7 1.95-13.85 1.95-8.05 0-13.8-1.95-4.45-1.45-5.45-3.4-5.45-1.6-9.3-4.3-6.05-4.2-7.35-10.5-4.15.05-5.4-1.2z"/><path id="P" stroke="#3C190A" stroke-width="1" stroke-linejoin="round" stroke-linecap="round" fill="none" d="M14.05-12.85Q7.4-15.5-.2-15.5t-14.25 2.65q-6.8 2.7-12.05 7.95-5.05 5.05-7.65 12.85-2.3 7-2.3 15 0 8.7 7.7 14.05 9.4 6.6 28.55 6.6T28.35 37q7.7-5.35 7.7-14.05 0-8-2.3-15Q31.15.15 26.1-4.9q-5.25-5.25-12.05-7.95z"/><path id="W" stroke="#856301" stroke-width="3" stroke-linejoin="round" stroke-linecap="round" fill="none" d="M-6.95 76.95V-40.8h14.1V76.95h-14.1z"/><path id="X" stroke="#8E7D59" stroke-width="4" stroke-linejoin="round" stroke-linecap="round" fill="none" d="M-9.5 9.8H9.8q1.75 0 3-1.25t1.25-3q0-1.75-1.25-3.05-.9-.9-2.15-1.15 1.25-.2 2.15-1.2 1.25-1.2 1.25-2.95 0-1.8-1.25-3.05-1.23-1.23-2.9-1.25 1.67-.02 2.9-1.25 1.25-1.25 1.25-3T12.8-14.4q-1.25-1.2-3-1.2H-9.5q-1.75 0-3.05 1.2-1.2 1.3-1.2 3.05 0 1.75 1.2 3 1.28 1.23 2.95 1.25-1.67.02-2.95 1.25-1.2 1.25-1.2 3.05 0 1.75 1.2 2.95 1 1 2.2 1.2-1.2.25-2.2 1.15-1.2 1.3-1.2 3.05 0 1.75 1.2 3 1.3 1.25 3.05 1.25z"/><path id="Z" stroke="#8E7D59" stroke-width="1" stroke-linejoin="round" stroke-linecap="round" fill="none" d="M-12.55-14.4q-1.2 1.25-1.2 3.05 0 1.75 1.2 2.95 1.3 1.3 3.05 1.3H9.8q1.75 0 3-1.3 1.25-1.2 1.25-2.95 0-1.8-1.25-3.05-1.25-1.25-3-1.25H-9.5q-1.75 0-3.05 1.25z"/><path id="ab" stroke="#252525" stroke-width="3" stroke-linejoin="round" stroke-linecap="round" fill="none" d="M-22.3-67.65Q-13.1-76.9.05-76.9q13.1 0 22.4 9.25 9.2 9.25 9.2 22.35 0 13.1-9.2 22.4-9.3 9.2-22.4 9.2-13.15 0-22.35-9.2-9.3-9.3-9.3-22.4 0-13.1 9.3-22.35z"/><path id="ae" stroke="#8E7D59" stroke-width="1" stroke-linejoin="round" stroke-linecap="round" fill="none" d="M-12.55-5.85q-1.2 1.25-1.2 3.05 0 1.75 1.2 2.95 1.3 1.3 3.05 1.3H9.8q1.75 0 3-1.3 1.25-1.2 1.25-2.95 0-1.8-1.25-3.05-1.25-1.25-3-1.25H-9.5q-1.75 0-3.05 1.25z"/><path id="ag" stroke="#8E7D59" stroke-width="1" stroke-linejoin="round" stroke-linecap="round" fill="none" d="M-12.65 2.5q-1.2 1.25-1.2 3.05 0 1.75 1.2 2.95 1.3 1.3 3.05 1.3H9.7q1.75 0 3-1.3 1.25-1.2 1.25-2.95 0-1.8-1.25-3.05-1.25-1.25-3-1.25H-9.6q-1.75 0-3.05 1.25z"/><path id="ah" stroke="#252525" stroke-width="4" stroke-linejoin="round" stroke-linecap="round" fill="none" d="M121.35 64.7h4.3v1.85h31.6V64.7h4.3v22.5h-4.3v-1.7h-31.6v1.7h-4.3V64.7z"/><path id="aj" stroke="#252525" stroke-width="1" stroke-linejoin="round" stroke-linecap="round" fill="none" d="M161.35 85.5h-39.7V66.55h39.7V85.5z"/><path id="al" stroke="#252525" stroke-width="1" stroke-linejoin="round" stroke-linecap="round" fill="none" d="M157.25 87.15V64.7h4.25v22.45h-4.25z"/><path id="an" stroke="#252525" stroke-width="1" stroke-linejoin="round" stroke-linecap="round" fill="none" d="M121.35 87.15V64.7h4.25v22.45h-4.25z"/><path id="ap" stroke="#121212" stroke-width="3" stroke-linejoin="round" stroke-linecap="round" fill="none" d="M-3.7-20 1-30.85l4.65 11.2q3.2.85 5.9 2.8l10.9-4.3-4.55 11.2 1.65 4.05 11 4.75L20.1 3.2q-.55 3.35-2.1 6.2l4.45 11.35-10.6-4.4q-2.9 2.1-6.2 3l-5 11.5-4.6-11.15q-3-.65-5.65-2.1l-11.75 4.6 4.65-11.15q-2.5-3.55-3.1-7.9l-10.7-4.6 11.25-4.7Q-18.3-9.3-16.3-12l-4.2-10.65 11.1 4.6Q-6.7-19.5-3.7-20z"/><path id="as" stroke="#121212" stroke-width="3" stroke-linejoin="round" stroke-linecap="round" fill="none" d="M-3.7-20 1-30.85l4.65 11.2q3.2.85 5.9 2.8l10.9-4.3-4.55 11.2 1.65 4.05 11 4.75L20.1 3.2q-.55 3.35-2.1 6.2l4.45 11.35-10.6-4.4q-2.9 2.1-6.2 3l-5 11.5-4.6-11.15q-3-.65-5.65-2.1l-11.75 4.6 4.65-11.15q-2.5-3.55-3.1-7.9l-10.7-4.6 11.25-4.7Q-18.3-9.3-16.3-12l-4.2-10.65 11.1 4.6Q-6.7-19.5-3.7-20z"/></defs><g transform="matrix(-.4271 0 .00084 -.4271 105.15 38.1)"><use xlink:href="#a"/><use xlink:href="#b"/></g><g transform="matrix(-.4271 0 .00084 -.4271 105.15 38.1)"><use xlink:href="#c"/><use xlink:href="#d"/></g><g transform="matrix(-.4271 0 .00084 -.4271 105.15 38.1)"><use xlink:href="#e"/><use xlink:href="#f"/></g><g transform="matrix(-.4271 0 .00084 -.4271 105.15 38.1)"><use xlink:href="#g"/><use xlink:href="#h"/></g><g transform="matrix(-.4271 0 .00084 -.4271 105.15 38.1)"><use xlink:href="#i"/><use xlink:href="#j"/></g><g transform="matrix(-.4271 0 .00084 -.4271 105.15 38.1)"><use xlink:href="#k"/><use xlink:href="#l"/></g><g transform="matrix(-.4271 0 .00084 -.4271 105.15 38.1)"><use xlink:href="#m"/><use xlink:href="#n"/></g><g transform="matrix(-.4271 0 .00084 -.4271 105.15 38.1)"><use xlink:href="#o"/><use xlink:href="#p"/></g><g><use xlink:href="#q" transform="matrix(.38109 .1921 .19284 -.38147 13.1 35.85)"/><use xlink:href="#r" transform="matrix(.38109 .1921 .19284 -.38147 13.1 35.85)"/><use xlink:href="#s" transform="matrix(.38109 .1921 .19284 -.38147 13.1 35.85)"/></g><g><use xlink:href="#q" transform="matrix(-.38663 .18225 -.18149 -.38628 27.3 35.85)"/><use xlink:href="#r" transform="matrix(-.38663 .18225 -.18149 -.38628 27.3 35.85)"/><use xlink:href="#s" transform="matrix(-.38663 .18225 -.18149 -.38628 27.3 35.85)"/></g><g><g transform="matrix(-.4271 0 .00084 -.4271 19.85 52.3)"><use xlink:href="#t"/><use xlink:href="#u"/></g><use xlink:href="#v" transform="matrix(-.4271 0 .00084 -.4271 19.85 52.3)"/><use xlink:href="#w" transform="matrix(-.4271 0 .00084 -.4271 19.85 52.3)"/><use xlink:href="#x" transform="matrix(-.4271 0 .00084 -.4271 19.85 52.3)"/><use xlink:href="#y" transform="matrix(-.4271 0 .00084 -.4271 19.85 52.3)"/><use xlink:href="#z" transform="matrix(-.4271 0 .00084 -.4271 19.85 52.3)"/><g transform="matrix(-.4271 0 .00084 -.4271 19.85 52.3)"><use xlink:href="#A"/><use xlink:href="#B"/></g><use xlink:href="#C" transform="matrix(-.4271 0 .00084 -.4271 19.85 52.3)"/><use xlink:href="#D" transform="matrix(-.4271 0 .00084 -.4271 19.85 52.3)"/><use xlink:href="#E" transform="matrix(-.4271 0 .00084 -.4271 19.85 52.3)"/><use xlink:href="#F" transform="matrix(-.4271 0 .00084 -.4271 19.85 52.3)"/><use xlink:href="#G" transform="matrix(-.4271 0 .00084 -.4271 19.85 52.3)"/><g transform="matrix(-.4271 0 .00084 -.4271 19.85 52.3)"><use xlink:href="#H"/><use xlink:href="#I"/></g><use xlink:href="#J" transform="matrix(-.4271 0 .00084 -.4271 19.85 52.3)"/><use xlink:href="#K" transform="matrix(-.4271 0 .00084 -.4271 19.85 52.3)"/><use xlink:href="#L" transform="matrix(-.4271 0 .00084 -.4271 19.85 52.3)"/><use xlink:href="#M" transform="matrix(-.4271 0 .00084 -.4271 19.85 52.3)"/><use xlink:href="#N" transform="matrix(-.4271 0 .00084 -.4271 19.85 52.3)"/><g transform="matrix(-.4271 0 .00084 -.4271 19.85 52.3)"><use xlink:href="#O"/><use xlink:href="#P"/></g><use xlink:href="#Q" transform="matrix(-.4271 0 .00084 -.4271 19.85 52.3)"/><use xlink:href="#R" transform="matrix(-.4271 0 .00084 -.4271 19.85 52.3)"/><use xlink:href="#S" transform="matrix(-.4271 0 .00084 -.4271 19.85 52.3)"/><use xlink:href="#T" transform="matrix(-.4271 0 .00084 -.4271 19.85 52.3)"/><use xlink:href="#U" transform="matrix(-.4271 0 .00084 -.4271 19.85 52.3)"/></g><g><g transform="matrix(-.4271 0 .00084 -.4271 44.65 36.5)"><use xlink:href="#V"/><use xlink:href="#W"/></g><use xlink:href="#X" transform="matrix(-.4271 0 .00084 -.4271 44.65 36.5)"/><g transform="matrix(-.4271 0 .00084 -.4271 44.65 36.5)"><use xlink:href="#Y"/><use xlink:href="#Z"/></g><g transform="matrix(-.4271 0 .00084 -.4271 44.65 36.5)"><use xlink:href="#aa"/><use xlink:href="#ab"/></g><use xlink:href="#ac" transform="matrix(-.4271 0 .00084 -.4271 44.65 36.5)"/><g transform="matrix(-.4271 0 .00084 -.4271 44.65 36.5)"><use xlink:href="#ad"/><use xlink:href="#ae"/></g><g transform="matrix(-.4271 0 .00084 -.4271 44.65 36.5)"><use xlink:href="#af"/><use xlink:href="#ag"/></g></g><g><use xlink:href="#ah" transform="matrix(-.4271 0 .00084 -.4271 105.15 38.1)"/><g transform="matrix(-.4271 0 .00084 -.4271 105.15 38.1)"><use xlink:href="#ai"/><use xlink:href="#aj"/></g><g transform="matrix(-.4271 0 .00084 -.4271 105.15 38.1)"><use xlink:href="#ak"/><use xlink:href="#al"/></g><g transform="matrix(-.4271 0 .00084 -.4271 105.15 38.1)"><use xlink:href="#am"/><use xlink:href="#an"/></g></g><g><g transform="matrix(0 -.4271 .4271 0 45 55.45)"><use xlink:href="#ao"/><use xlink:href="#ap"/></g><use xlink:href="#aq" transform="matrix(0 -.4271 .4271 0 45 55.45)"/><g transform="matrix(0 -.4271 .4271 0 45 55.45)"><use xlink:href="#ar"/><use xlink:href="#as"/></g><use xlink:href="#at" transform="matrix(0 -.4271 .4271 0 45 55.45)"/></g></svg>