<svg xmlns="http://www.w3.org/2000/svg" xmlns:xlink="http://www.w3.org/1999/xlink" preserveAspectRatio="none" width="28" height="29"><defs><path fill="#232222" d="m30.55-1.15-11-4.75-1.65-4.05 4.55-11.2-10.9 4.3q-2.7-1.95-5.9-2.8L1-30.85-3.7-20q-3 .5-5.7 1.95l-11.1-4.6L-16.3-12q-2 2.7-2.95 5.85l-11.25 4.7 10.7 4.6q.6 4.35 3.1 7.9l-4.65 11.15 11.75-4.6q2.65 1.45 5.65 2.1l4.6 11.15 5-11.5q3.3-.9 6.2-3l10.6 4.4L18 9.4q1.55-2.85 2.1-6.2l10.45-4.35z" id="a"/><path fill="#FFF" d="m7.2-14.15 3.4 2.5q5.1 4.75 5.1 11.5 0 6.7-5.1 11.45-1.65 1.55-3.45 2.55Q11.85 8 11.85-.2q0-8.1-4.65-13.95z" id="c"/><path fill="#232222" d="m30.55-1.15-11-4.75-1.65-4.05 4.55-11.2-10.9 4.3q-2.7-1.95-5.9-2.8L1-30.85-3.7-20q-3 .5-5.7 1.95l-11.1-4.6L-16.3-12q-2 2.7-2.95 5.85l-11.25 4.7 10.7 4.6q.6 4.35 3.1 7.9l-4.65 11.15 11.75-4.6q2.65 1.45 5.65 2.1l4.6 11.15 5-11.5q3.3-.9 6.2-3l10.6 4.4L18 9.4q1.55-2.85 2.1-6.2l10.45-4.35z" id="d"/><path fill="#FFF" d="m7.2-14.15 3.4 2.5q5.1 4.75 5.1 11.5 0 6.7-5.1 11.45-1.65 1.55-3.45 2.55Q11.85 8 11.85-.2q0-8.1-4.65-13.95z" id="f"/><path id="b" stroke="#121212" stroke-width="3" stroke-linejoin="round" stroke-linecap="round" fill="none" d="M-3.7-20 1-30.85l4.65 11.2q3.2.85 5.9 2.8l10.9-4.3-4.55 11.2 1.65 4.05 11 4.75L20.1 3.2q-.55 3.35-2.1 6.2l4.45 11.35-10.6-4.4q-2.9 2.1-6.2 3l-5 11.5-4.6-11.15q-3-.65-5.65-2.1l-11.75 4.6 4.65-11.15q-2.5-3.55-3.1-7.9l-10.7-4.6 11.25-4.7Q-18.3-9.3-16.3-12l-4.2-10.65 11.1 4.6Q-6.7-19.5-3.7-20z"/><path id="e" stroke="#121212" stroke-width="3" stroke-linejoin="round" stroke-linecap="round" fill="none" d="M-3.7-20 1-30.85l4.65 11.2q3.2.85 5.9 2.8l10.9-4.3-4.55 11.2 1.65 4.05 11 4.75L20.1 3.2q-.55 3.35-2.1 6.2l4.45 11.35-10.6-4.4q-2.9 2.1-6.2 3l-5 11.5-4.6-11.15q-3-.65-5.65-2.1l-11.75 4.6 4.65-11.15q-2.5-3.55-3.1-7.9l-10.7-4.6 11.25-4.7Q-18.3-9.3-16.3-12l-4.2-10.65 11.1 4.6Q-6.7-19.5-3.7-20z"/></defs><g transform="matrix(.4271 0 0 .4271 13.65 13.8)"><use xlink:href="#a"/><use xlink:href="#b"/></g><use xlink:href="#c" transform="matrix(.4271 0 0 .4271 13.65 13.8)"/><g transform="matrix(.4271 0 0 .4271 13.65 13.8)"><use xlink:href="#d"/><use xlink:href="#e"/></g><use xlink:href="#f" transform="matrix(.4271 0 0 .4271 13.65 13.8)"/></svg>